# AST/ASF file generated using VICON BodyLanguage
# -----------------------------------------------
:version 1.10
:name VICON
:units
  mass 1.0
  length 0.45
  angle deg
:documentation
   .ast/.asf automatically generated from VICON data using
   VICON BodyBuilder and BodyLanguage model FoxedUp or BRILLIANT.MOD
:root
   order TX TY TZ RX RY RZ
   axis XYZ
   position 0 0 0  
   orientation 0 0 0 
:bonedata
  begin
     id 1 
     name lhipjoint
     direction 0.671379 -0.66392 0.329334 
     length 2.38647 
     axis 0 0 0  XYZ
  end
  begin
     id 2 
     name lfemur
     direction 0.34202 -0.939693 0  
     length 6.48179  
     axis 0 0 20  XYZ
    dof rx ry rz
    limits (-160.0 20.0)
           (-70.0 70.0)
           (-60.0 70.0)
  end
  begin
     id 3 
     name ltibia
     direction 0.34202 -0.939693 0   
     length 6.86524   
     axis 0 0 20   XYZ
    dof rx
    limits (-10.0 170.0)
  end
  begin
     id 4 
     name lfoot
     direction 0.204886 -0.562919 0.800715   
     length 1.73031   
     axis -90 7.62852e-016 20   XYZ
    dof rx rz
    limits (-45.0 90.0)
           (-70.0 20.0)
  end
  begin
     id 5 
     name ltoes
     direction 1.53548e-011 -4.21841e-011 1   
     length 0.828161   
     axis -90 7.62852e-016 20   XYZ
    dof rx
    limits (-90.0 20.0)
  end
  begin
     id 6 
     name rhipjoint
     direction -0.662732 -0.670855 0.332775   
     length 2.3618  
     axis 0 0 0  XYZ 
  end
  begin
     id 7 
     name rfemur
     direction -0.34202 -0.939693 0   
     length 6.3025   
     axis 0 0 -20   XYZ
    dof rx ry rz
    limits (-160.0 20.0)
           (-70.0 70.0)
           (-70.0 60.0)
  end
  begin
     id 8 
     name rtibia
     direction -0.34202 -0.939693 0   
     length 6.8732   
     axis 0 0 -20   XYZ
    dof rx
    limits (-10.0 170.0)
 end
 begin
     id 9 
     name rfoot
     direction -0.173856 -0.477665 0.861168   
     length 1.54784  
     axis -90 -7.62852e-016 -20   XYZ
    dof rx rz
    limits (-45.0 90.0)
           (-20.0 70.0)
  end
  begin
     id 10 
     name rtoes
     direction -1.53562e-011 -4.21802e-011 1   
     length 0.759618   
     axis -90 -7.62852e-016 -20   XYZ
    dof rx
    limits (-90.0 20.0)
  end
  begin
     id 11 
     name lowerback
     direction -0.0278357 0.999497 -0.0151789   
     length 1.97203   
     axis 0 0 0   XYZ
    dof rx ry rz
    limits (-20.0 45.0)
           (-30.0 30.0)
           (-30.0 30.0)
  end
  begin
     id 12 
     name upperback
     direction -0.00360622 0.997542 0.0699804   
     length 1.94709   
     axis 0 0 0   XYZ
    dof rx ry rz
    limits (-20.0 45.0)
           (-30.0 30.0)
           (-30.0 30.0)
  end
  begin
     id 13 
     name thorax
     direction 0.00907706 0.997048 0.0762461   
     length 1.95722   
     axis 0 0 0   XYZ
    dof rx ry rz
    limits (-20.0 45.0)
           (-30.0 30.0)
           (-30.0 30.0)
  end
  begin
     id 14 
     name lowerneck
     direction -0.0481835 0.99872 -0.0153927   
     length 1.63078   
     axis 0 0 0   XYZ
    dof rx ry rz
    limits (-20.0 45.0)
           (-30.0 30.0)
           (-30.0 30.0)
  end
  begin
     id 15 
     name upperneck
     direction 0.0859716 0.979226 -0.183644   
     length 1.62591   
     axis 0 0 0   XYZ
    dof rx ry rz
    limits (-20.0 45.0)
           (-30.0 30.0)
           (-30.0 30.0)
  end
  begin
     id 16
     name head
     direction 0.0324821 0.997629 -0.0606773  
     length 1.64811  
     axis 0 0 0   XYZ
    dof rx ry rz
    limits (-20.0 45.0)
           (-30.0 30.0)
           (-30.0 30.0)
  end
  begin
     id 17 
     name lclavicle
     direction 0.939609 0.311019 0.142835  
     length 3.70647  
     axis 0 0 0   XYZ
    dof ry rz
    limits (-20.0 10.0)
           (0.0 20.0)
  end
  begin
     id 18 
     name lhumerus
     direction 1 -4.48963e-011 -1.59838e-027   
     length 4.59207   
     axis 180 -30 -90   XYZ
    dof rx ry rz
    limits (-60.0 90.0)
           (-90.0 90.0)
           (-90.0 90.0)
  end
  begin
     id 19
     name lradius
     direction 1 -4.48957e-011 -1.3483e-026   
     length 2.98109   
     axis 180 -30 -90   XYZ
    dof rx
    limits (-10.0 170.0)
  end
  begin
     id 20
     name lwrist
     direction 1 -4.48954e-011 -3.11579e-026   
     length 1.49055   
     axis 2.00652e-014 90 90   XYZ
    dof ry
    limits (-180.0 0.0)
 end
  begin
     id 21 
     name lhand
     direction 1 -4.4911e-011 -6.23158e-026   
     length 0.480203   
     axis 3.97628e-014 90 90   XYZ
    dof rx rz
    limits (-90.0 90.0)
           (-45.0 45.0)
  end
  begin
     id 22 
     name lfingers
     direction 1 -4.48893e-011 -1.24632e-025   
     length 0.387152   
     axis 7.95256e-014 90 90   XYZ
    dof rx
    limits (0.0 90.0)
  end
  begin
     id 23
     name lthumb
     direction 0.707107 -6.35013e-011 0.707107   
     length 0.555875   
     axis -90 45 2.85299e-015   XYZ
    dof rx rz
    limits (-45.0 45.0)
           (-45.0 45.0)
  end
  begin
     id 24 
     name rclavicle
     direction -0.950396 0.30392 0.0661859   
     length 3.70894  
     axis 0 0 0   XYZ 
    dof ry rz
    limits (-10.0 20.0)
           (-20.0 0.0)
  end
  begin
     id 25 
     name rhumerus
     direction -1 -4.48957e-011 -2.96677e-027  
     length 4.76508   
     axis 180 30 90   XYZ
    dof rx ry rz
    limits (-90.0 60.0)
           (-90.0 90.0)
           (-90.0 90.0)
  end
  begin
     id 26 
     name rradius
     direction -1 -4.48974e-011 -1.44501e-026   
     length 2.78902   
     axis 180 30 90   XYZ
    dof rx
    limits (-10.0 170.0)
  end
  begin
     id 27 
     name rwrist
     direction -1 -4.48978e-011 -3.11579e-026   
     length 1.39451   
     axis 2.00652e-014 -90 -90   XYZ
    dof ry
    limits (-180.0 0.0)
  end
  begin
     id 28
     name rhand
     direction -1 -4.48956e-011 -6.23158e-026   
     length 0.721303   
     axis 3.97628e-014 -90 -90   XYZ
    dof rx rz
    limits (-90.0 90.0)
           (-45.0 45.0)
  end
  begin
     id 29
     name rfingers
     direction -1 -4.4899e-011 -1.24632e-025   
     length 0.581533   
     axis 7.95256e-014 -90 -90   XYZ
    dof rx
    limits (0.0 90.0)
  end
  begin
     id 30
     name rthumb
     direction -0.707107 -6.34911e-011 0.707107   
     length 0.834968   
     axis -90 -45 -2.85299e-015   XYZ
    dof rx rz
    limits (-45.0 45.0)
           (-45.0 45.0)
  end
:hierarchy
  begin
    root lhipjoint rhipjoint lowerback
    lhipjoint lfemur
    lfemur ltibia
    ltibia lfoot
    lfoot ltoes
    rhipjoint rfemur
    rfemur rtibia
    rtibia rfoot
    rfoot rtoes
    lowerback upperback
    upperback thorax
    thorax lowerneck lclavicle rclavicle
    lowerneck upperneck
    upperneck head
    lclavicle lhumerus
    lhumerus lradius
    lradius lwrist
    lwrist lhand lthumb
    lhand lfingers
    rclavicle rhumerus
    rhumerus rradius
    rradius rwrist
    rwrist rhand rthumb
    rhand rfingers
  end

#!OML:ASF I:\salsa\salsa 7_09\Patient 1\Session 1\dancerfemale.ASF
:FULLY-SPECIFIED
:DEGREES
172
root 16.639 15.6212 -1.53544 -182.137 -58.7764 179.243
lowerback -15.7095 1.82801 -9.05731
upperback -6.40669 3.00598 -8.07805
thorax 1.85862 1.11037 -2.9703
lowerneck 0.807168 4.55132 -5.51616
upperneck 15.5605 2.65629 21.9795
head 3.90696 1.65028 7.95473
rclavicle -9.85972e-014 6.67916e-014
rhumerus -38.5102 16.518 -114.393
rradius 47.1625
rwrist -16.4822
rhand 9.76231 33.1576
rfingers 7.12502
rthumb 34.9009 6.57846
lclavicle -9.85972e-014 6.67916e-014
lhumerus -50.7303 12.1028 80.5396
lradius 80.6285
lwrist -3.31199
lhand -51.3179 40.368
lfingers 7.12502
lthumb -23.8535 68.9068
rfemur -7.89334 2.62873 19.6538
rtibia 36.0335
rfoot -28.0823 8.26835
rtoes -5.76771
lfemur 2.33185 3.32243 -23.4443
ltibia 34.4275
lfoot -37.1456 25.7454
ltoes -16.6704
173
root 16.5659 15.5629 -1.48644 -182.96 -58.1486 178.965
lowerback -15.8571 1.63846 -7.9557
upperback -6.21099 2.71173 -7.3329
thorax 2.19046 0.989426 -2.82072
lowerneck 0.633822 5.09926 -4.78179
upperneck 17.1029 3.3425 20.3582
head 4.37402 2.02851 7.34916
rclavicle 2.78299e-014 6.99722e-014
rhumerus -38.5894 16.2279 -113.123
rradius 48.1391
rwrist -17.2485
rhand 10.1002 31.8537
rfingers 7.12502
rthumb 35.2214 5.34958
lclavicle 2.78299e-014 6.99722e-014
lhumerus -51.1914 12.9888 81.3078
lradius 80.8104
lwrist -3.30838
lhand -51.5572 40.8144
lfingers 7.12502
lthumb -24.083 69.3231
rfemur -7.21335 2.23081 19.0547
rtibia 37.1358
rfoot -28.7077 9.22689
rtoes -5.97702
lfemur 3.29205 4.14583 -23.7081
ltibia 35.1229
lfoot -37.4206 25.5073
ltoes -16.8275
174
root 16.4971 15.5032 -1.42981 -183.541 -57.5861 178.464
lowerback -15.9743 1.46567 -6.88918
upperback -5.961 2.43486 -6.59203
thorax 2.55466 0.878421 -2.6626
lowerneck 0.571329 5.66823 -4.14001
upperneck 18.5365 4.10403 18.7706
head 4.79886 2.41239 6.78039
rclavicle 2.8625e-014 -6.20208e-014
rhumerus -38.6075 16.0539 -111.822
rradius 48.8795
rwrist -17.0842
rhand 9.80049 31.3637
rfingers 7.12502
rthumb 34.9371 4.793
lclavicle 2.8625e-014 -6.20208e-014
lhumerus -51.5235 13.8812 82.1092
lradius 80.9819
lwrist -3.31552
lhand -51.7144 40.7624
lfingers 7.12502
lthumb -24.2337 69.251
rfemur -6.6905 1.72437 18.2594
rtibia 38.3095
rfoot -29.2951 10.1981
rtoes -6.41588
lfemur 4.09552 4.89825 -24.129
ltibia 35.949
lfoot -37.6033 25.273
ltoes -16.8091
175
root 16.4438 15.4455 -1.36797 -184.017 -57.2531 177.961
lowerback -15.8099 1.25908 -5.93308
upperback -5.70196 2.09199 -5.83206
thorax 2.76527 0.741947 -2.44487
lowerneck 0.510756 6.14179 -3.39582
upperneck 19.873 4.81123 16.9423
head 5.23815 2.74536 6.12392
rclavicle -1.27222e-014 -5.08889e-014
rhumerus -38.4945 15.6923 -110.357
rradius 49.444
rwrist -15.7489
rhand 9.02554 31.7444
rfingers 7.12502
rthumb 34.2015 5.00562
lclavicle -1.27222e-014 -5.08889e-014
lhumerus -51.7459 14.4745 82.9868
lradius 81.1679
lwrist -3.23055
lhand -51.726 40.1991
lfingers 7.12502
lthumb -24.2448 68.6862
rfemur -6.35123 1.15489 17.4478
rtibia 39.5369
rfoot -29.7871 11.145
rtoes -6.46647
lfemur 4.65816 5.47462 -24.5062
ltibia 36.8447
lfoot -37.5442 24.9436
ltoes -16.7474
176
root 16.4033 15.3911 -1.29969 -184.521 -56.6747 177.597
lowerback -15.3819 1.20986 -4.8848
upperback -5.51214 1.9072 -5.02718
thorax 2.75908 0.687015 -2.21134
lowerneck 0.683479 6.54254 -2.63693
upperneck 20.9011 5.50827 15.0122
head 5.57042 3.03696 5.42222
rclavicle 6.2816e-014 3.33958e-014
rhumerus -38.4156 15.1002 -108.808
rradius 49.9363
rwrist -13.6342
rhand 8.19163 32.6604
rfingers 7.12502
rthumb 33.4092 5.74746
lclavicle 6.2816e-014 3.33958e-014
lhumerus -51.852 14.7748 83.9469
lradius 81.2288
lwrist -3.1864
lhand -51.8444 39.7621
lfingers 7.12502
lthumb -24.3583 68.2341
rfemur -6.27411 0.869138 16.7457
rtibia 40.7989
rfoot -30.134 11.9279
rtoes -6.47063
lfemur 5.06144 6.28901 -24.7118
ltibia 37.7673
lfoot -37.3737 24.4628
ltoes -16.6423
177
root 16.355 15.3385 -1.21554 -185.198 -56.5189 177.27
lowerback -14.7326 1.11396 -3.5753
upperback -5.14123 1.64349 -4.32818
thorax 2.83189 0.594274 -2.25597
lowerneck 0.831394 6.94781 -2.15982
upperneck 21.5447 6.2665 13.3599
head 5.77608 3.3453 4.85244
rclavicle 6.12257e-014 2.06736e-014
rhumerus -38.263 14.425 -107.249
rradius 50.4946
rwrist -11.5401
rhand 7.52536 33.5522
rfingers 7.12502
rthumb 32.7756 6.50494
lclavicle 6.12257e-014 2.06736e-014
lhumerus -51.7434 14.8004 84.8658
lradius 81.2731
lwrist -3.03671
lhand -52.0011 39.681
lfingers 7.12502
lthumb -24.5086 68.1327
rfemur -6.01702 0.336782 16.0015
rtibia 42.0787
rfoot -30.4915 12.2844
rtoes -6.49647
lfemur 5.60457 6.74419 -24.954
ltibia 38.665
lfoot -36.9253 24.0597
ltoes -17.2381
178
root 16.3025 15.2815 -1.12171 -185.992 -56.4885 176.823
lowerback -13.9143 1.03835 -2.10956
upperback -4.54218 1.41402 -3.71389
thorax 3.04839 0.523662 -2.4759
lowerneck 0.874856 7.32883 -1.8717
upperneck 21.85 7.06808 11.729
head 5.89602 3.66312 4.31935
rclavicle -3.81667e-014 -1.74931e-014
rhumerus -37.8854 13.5769 -105.651
rradius 51.0709
rwrist -9.99717
rhand 7.22916 34.0872
rfingers 7.12502
rthumb 32.4938 6.98154
lclavicle -3.81667e-014 -1.74931e-014
lhumerus -51.3091 14.5759 85.7981
lradius 81.3305
lwrist -2.79806
lhand -52.101 39.6471
lfingers 7.12502
lthumb -24.6043 68.0858
rfemur -5.47594 -0.224721 15.1248
rtibia 43.3613
rfoot -30.9349 12.5708
rtoes -6.37744
lfemur 6.42671 7.12654 -25.2928
ltibia 39.4947
lfoot -36.6377 23.6173
ltoes -17.8136
179
root 16.2632 15.2247 -1.04694 -186.163 -55.45 176.034
lowerback -13.3582 1.26172 -0.963113
upperback -4.03421 1.60949 -3.01637
thorax 3.30199 0.657716 -2.36068
lowerneck 1.118 7.63335 -1.34738
upperneck 21.8793 7.86253 9.6395
head 5.94619 3.95427 3.59173
rclavicle 6.24184e-014 1.43125e-014
rhumerus -37.3979 12.4282 -104.102
rradius 51.4791
rwrist -8.98877
rhand 7.13982 34.3766
rfingers 7.12502
rthumb 32.4088 7.25352
lclavicle 6.24184e-014 1.43125e-014
lhumerus -50.8362 14.199 86.7064
lradius 81.4447
lwrist -2.55335
lhand -52.2503 39.7003
lfingers 7.12502
lthumb -24.7474 68.1195
rfemur -5.47108 -0.0658723 14.2766
rtibia 44.619
rfoot -31.418 12.5703
rtoes -8.48532
lfemur 7.00803 8.6236 -25.5803
ltibia 40.2176
lfoot -36.5466 22.9037
ltoes -17.7796
180
root 16.2286 15.1753 -0.959697 -185.88 -54.7426 174.906
lowerback -12.6496 1.37107 0.0503136
upperback -3.60382 1.66102 -2.45813
thorax 3.38305 0.715253 -2.34546
lowerneck 1.39764 7.95765 -0.797418
upperneck 21.8296 8.67804 7.56864
head 5.98255 4.25419 2.8715
rclavicle -3.93594e-014 -2.82274e-014
rhumerus -36.8979 11.4305 -102.784
rradius 51.5695
rwrist -8.85488
rhand 6.87451 34.5979
rfingers 7.12502
rthumb 32.1562 7.42341
lclavicle -3.93594e-014 -2.82274e-014
lhumerus -50.6069 13.8477 87.3689
lradius 81.7274
lwrist -2.38051
lhand -52.3718 39.9791
lfingers 7.12502
lthumb -24.8639 68.3822
rfemur -5.64554 -0.373998 13.1592
rtibia 45.7728
rfoot -31.9675 12.1173
rtoes -13.006
lfemur 7.3166 9.92241 -26.1752
ltibia 40.8523
lfoot -36.3163 22.4033
ltoes -17.8247
181
root 16.1961 15.1451 -0.870707 -185.46 -54.1204 174.059
lowerback -12.141 1.46532 1.22995
upperback -3.23723 1.66807 -1.91556
thorax 3.5067 0.747423 -2.4474
lowerneck 1.42747 8.32198 -0.4762
upperneck 21.8302 9.51186 5.75933
head 6.0668 4.56591 2.28993
rclavicle -9.26337e-014 -2.0276e-014
rhumerus -36.3216 10.6418 -101.619
rradius 51.4974
rwrist -9.52421
rhand 6.50064 34.6571
rfingers 7.12502
rthumb 31.8002 7.41129
lclavicle -9.26337e-014 -2.0276e-014
lhumerus -50.4859 13.6104 87.8192
lradius 82.166
lwrist -2.33117
lhand -52.7016 40.7534
lfingers 7.12502
lthumb -25.1798 69.1124
rfemur -6.17801 -0.374481 12.2677
rtibia 46.7686
rfoot -32.3049 11.6832
rtoes -15.8514
lfemur 7.22876 11.0856 -26.6902
ltibia 41.3577
lfoot -36.0936 22.0514
ltoes -18.3328
182
root 16.1638 15.1285 -0.783192 -185.201 -53.3327 173.754
lowerback -11.87 1.65066 2.76045
upperback -2.89412 1.74168 -1.3139
thorax 3.74661 0.81416 -2.67281
lowerneck 1.28383 8.65926 -0.148374
upperneck 21.9385 10.315 3.87215
head 6.23614 4.85067 1.69973
rclavicle -3.05134e-014 1.11319e-014
rhumerus -35.745 9.65504 -100.467
rradius 51.58
rwrist -10.273
rhand 6.14248 34.5693
rfingers 7.12502
rthumb 31.4591 7.25637
lclavicle -3.05134e-014 1.11319e-014
lhumerus -50.4721 13.4952 88.1347
lradius 82.6964
lwrist -2.33125
lhand -53.2224 41.9614
lfingers 7.12502
lthumb -25.6787 70.2495
rfemur -6.94911 0.115082 11.8021
rtibia 47.5385
rfoot -32.3079 11.4466
rtoes -16.6776
lfemur 6.8865 12.197 -26.9802
ltibia 41.7426
lfoot -35.8789 21.7691
ltoes -18.666
